<?xml version="1.0" encoding="utf-8"?>
<!-- Generator: Adobe Illustrator 19.1.0, SVG Export Plug-In . SVG Version: 6.00 Build 0)  -->
<!DOCTYPE svg PUBLIC "-//W3C//DTD SVG 1.1//EN" "http://www.w3.org/Graphics/SVG/1.1/DTD/svg11.dtd">
<svg version="1.1" id="Layer_1" xmlns:sketch="http://www.bohemiancoding.com/sketch/ns"
	 xmlns="http://www.w3.org/2000/svg" xmlns:xlink="http://www.w3.org/1999/xlink" x="0px" y="0px" viewBox="-185 370 240 54"
	 style="enable-background:new -185 370 240 54;" xml:space="preserve">
<style type="text/css">
	.st0{fill:#8AC441;}
	.st1{fill:#68A31E;}
	.st2{fill:#F7911F;}
	.st3{fill:#E67117;}
	.st4{fill:#F4CA13;}
	.st5{fill:#D7DE27;}
	.st6{fill:#29A8E0;}
	.st7{fill:#0D72B8;}
	.st8{filter:url(#Adobe_OpacityMaskFilter);}
	.st9{fill:#FFFFFF;}
	.st10{mask:url(#mask-2);fill:#FFFFFF;}
	.st11{fill:#878787;}
</style>
<title>logo-dark</title>
<desc>Created with Sketch.</desc>
<g id="Page-1" sketch:type="MSPage">
	<g id="logo-dark" sketch:type="MSArtboardGroup">
		<g id="Page-1-Copy-2-_x2B_-CONNECT-Copy-4-Copy" sketch:type="MSLayerGroup">
			<g id="Page-1-Copy-2">
				<path id="Fill-1" sketch:type="MSShapeGroup" class="st0" d="M-150.3,370.2c-7.9,0-15,4.1-20.2,10.8c4.3,0.4,9.5,1.3,14.7,2.7
					c7.4-3.1,15.5-5.3,23.1-6.2C-137.6,372.9-143.9,370.2-150.3,370.2"/>
				<path id="Fill-3" sketch:type="MSShapeGroup" class="st1" d="M-169.8,380.2c-0.1,0.1-0.5,0.6-0.7,0.9c4.3,0.4,9.7,1.3,14.6,2.7
					C-160.8,381.2-168.3,380.4-169.8,380.2"/>
				<path id="Fill-5" sketch:type="MSShapeGroup" class="st2" d="M-132.8,377.6c0.1,0.1,4.5,4.4,7.1,10c2.6,5.6,3.7,11.2,3.7,11.2
					c3.7-0.5,13-8.5,11.5-15.3C-111.9,376.5-128.4,377.1-132.8,377.6"/>
				<path id="Fill-7" sketch:type="MSShapeGroup" class="st3" d="M-124.8,386.9c-1.4-3.4-4-7.3-5.7-9.6c-0.9,0.1-1.7,0.1-2.3,0.2
					c0.1,0.1,4.5,4.4,7.1,10c2.6,5.6,3.7,11.2,3.7,11.2C-122.2,396.6-122.7,392-124.8,386.9"/>
				<path id="Fill-9" sketch:type="MSShapeGroup" class="st0" d="M-127.3,384.5c0.1,0.2,0.3,0.4,0.4,0.7
					C-127.1,384.9-127.2,384.7-127.3,384.5"/>
				<path id="Fill-11" sketch:type="MSShapeGroup" class="st0" d="M-128.1,383.3c0.1,0.2,0.3,0.4,0.4,0.6
					C-127.8,383.7-127.9,383.5-128.1,383.3"/>
				<path id="Fill-13" sketch:type="MSShapeGroup" class="st0" d="M-130.6,379.9c0.2,0.2,0.3,0.4,0.5,0.6
					C-130.3,380.3-130.4,380.1-130.6,379.9"/>
				<path id="Fill-15" sketch:type="MSShapeGroup" class="st0" d="M-131.5,378.9c0.2,0.2,0.3,0.4,0.5,0.6
					C-131.2,379.2-131.3,379.1-131.5,378.9"/>
				<path id="Fill-17" sketch:type="MSShapeGroup" class="st0" d="M-129.7,381c0.2,0.2,0.3,0.4,0.5,0.6
					C-129.4,381.4-129.6,381.2-129.7,381"/>
				<path id="Fill-19" sketch:type="MSShapeGroup" class="st0" d="M-132.5,377.9c0.2,0.2,0.4,0.4,0.5,0.5
					C-132.1,378.2-132.3,378.1-132.5,377.9"/>
				<path id="Fill-21" sketch:type="MSShapeGroup" class="st0" d="M-128.9,382.1c0.1,0.2,0.3,0.4,0.4,0.6
					C-128.6,382.5-128.7,382.3-128.9,382.1"/>
				<path id="Fill-23" sketch:type="MSShapeGroup" class="st4" d="M-131.9,378.4c0.1,0.1,0.3,0.3,0.4,0.5
					C-131.6,378.7-131.8,378.6-131.9,378.4"/>
				<path id="Fill-25" sketch:type="MSShapeGroup" class="st4" d="M-132.8,377.6L-132.8,377.6c0.1,0.1,0.2,0.2,0.3,0.3
					C-132.6,377.8-132.7,377.7-132.8,377.6"/>
				<path id="Fill-27" sketch:type="MSShapeGroup" class="st4" d="M-127.7,383.9c0.1,0.2,0.2,0.4,0.3,0.6
					C-127.4,384.3-127.6,384.1-127.7,383.9"/>
				<path id="Fill-29" sketch:type="MSShapeGroup" class="st4" d="M-128.4,382.7c0.1,0.2,0.2,0.4,0.4,0.5
					C-128.2,383.1-128.3,382.9-128.4,382.7"/>
				<path id="Fill-31" sketch:type="MSShapeGroup" class="st4" d="M-129.3,381.6c0.1,0.2,0.3,0.3,0.4,0.5
					C-129,381.9-129.1,381.8-129.3,381.6"/>
				<path id="Fill-33" sketch:type="MSShapeGroup" class="st4" d="M-131,379.4c0.1,0.2,0.3,0.3,0.4,0.5
					C-130.7,379.7-130.9,379.6-131,379.4"/>
				<path id="Fill-35" sketch:type="MSShapeGroup" class="st4" d="M-130.1,380.5c0.1,0.2,0.3,0.3,0.4,0.5
					C-129.9,380.8-130,380.7-130.1,380.5"/>
				<path id="Fill-37" sketch:type="MSShapeGroup" class="st5" d="M-126.1,386.5c-3.1-5.9-6.6-8.9-6.6-8.9
					c-7.5,0.9-15.7,3.1-23.1,6.2c11.1,3.1,23.4,8.6,33.9,15C-122,398.7-123.1,392.4-126.1,386.5"/>
				<path id="Fill-39" sketch:type="MSShapeGroup" class="st6" d="M-178,398.8c-4-3.9-9-10.3-6.1-14.5c2.9-4.2,13.3-3.3,13.6-3.3
					L-178,398.8z"/>
				<path id="Fill-41" sketch:type="MSShapeGroup" class="st6" d="M-171.8,383.1c-0.3,0.4-0.6,0.9-0.8,1.3
					C-172.4,384-172.1,383.5-171.8,383.1"/>
				<path id="Fill-43" sketch:type="MSShapeGroup" class="st7" d="M-178,398.8c0.6-5.7,3.5-13,7.6-17.8c6.2,0.6,9.6,1.4,14.6,2.8
					C-160.6,385.8-168.6,389.3-178,398.8"/>
				<g id="Group-47">
					<g id="Clip-46">
					</g>
					<defs>
						<filter id="Adobe_OpacityMaskFilter" filterUnits="userSpaceOnUse" x="-95" y="377.7" width="136.3" height="22.3">
							<feColorMatrix  type="matrix" values="1 0 0 0 0  0 1 0 0 0  0 0 1 0 0  0 0 0 1 0"/>
						</filter>
					</defs>
					<mask maskUnits="userSpaceOnUse" x="-95" y="377.7" width="136.3" height="22.3" id="mask-2">
						<g class="st8">
							<path id="path-1" class="st9" d="M-185,370.2H55V400h-240V370.2z"/>
						</g>
					</mask>
					<path id="Fill-45" sketch:type="MSShapeGroup" class="st10" d="M-95,398.7v-20.9h4.8v1.4h-3v18.1h3v1.4H-95z M41.3,377.7v21
						h-4.8v-1.4h3v-18.1h-3v-1.4H41.3z M24.5,395.2v-12.5h1.9v2c1-1.3,2.5-2.3,4.2-2.3v2c-0.2,0-0.5-0.1-0.8-0.1c-1.2,0-2.8,1-3.4,2
						v8.8H24.5z M13.5,384.1c-2.7,0-4,2.2-4.1,4.1h8.2C17.6,386.4,16.4,384.1,13.5,384.1L13.5,384.1z M7.4,389
						c0-3.6,2.6-6.5,6.1-6.5c3.8,0,6,2.9,6,6.7v0.5H9.5c0.2,2.4,1.8,4.3,4.5,4.3c1.4,0,2.9-0.6,3.9-1.6l0.9,1.3
						c-1.3,1.2-2.9,1.9-5,1.9C10.1,395.6,7.4,392.9,7.4,389L7.4,389z M0.5,391.8v-5.6c-0.7-1.1-2.2-2-3.7-2c-2.5,0-4,2.1-4,4.8
						c0,2.8,1.5,4.8,4,4.8C-1.7,393.8-0.2,392.9,0.5,391.8L0.5,391.8z M0.5,395.2v-1.9c-0.9,1.3-2.5,2.2-4.2,2.2
						c-3.3,0-5.6-2.5-5.6-6.5c0-4,2.3-6.6,5.6-6.6c1.7,0,3.2,0.8,4.2,2.2V378h1.9v17.2H0.5z M-15.5,389c0-2.5-1.5-4.8-4.1-4.8
						s-4.1,2.3-4.1,4.8c0,2.6,1.5,4.8,4.1,4.8S-15.5,391.6-15.5,389L-15.5,389z M-25.9,389c0-3.6,2.4-6.5,6.2-6.5s6.2,2.9,6.2,6.5
						c0,3.6-2.4,6.6-6.2,6.6S-25.9,392.6-25.9,389L-25.9,389z M-40.5,389c0-3.7,2.5-6.5,6.2-6.5c2.3,0,3.6,0.9,4.6,2.2l-1.3,1.2
						c-0.8-1.1-1.9-1.6-3.2-1.6c-2.6,0-4.3,2-4.3,4.8c0,2.8,1.7,4.8,4.3,4.8c1.3,0,2.4-0.5,3.2-1.6l1.3,1.2c-1,1.2-2.3,2.2-4.6,2.2
						C-38,395.6-40.5,392.7-40.5,389L-40.5,389z M-46.7,389c0-2.8-1.5-4.8-4-4.8c-1.5,0-3,0.9-3.7,2v5.6c0.7,1.1,2.2,2,3.7,2
						C-48.2,393.8-46.7,391.8-46.7,389L-46.7,389z M-54.4,393.4v6.6h-1.9v-17.2h1.9v1.9c0.9-1.3,2.5-2.2,4.2-2.2
						c3.3,0,5.6,2.5,5.6,6.5c0,4-2.3,6.6-5.6,6.6C-51.9,395.6-53.4,394.7-54.4,393.4L-54.4,393.4z M-63.3,389c0-2.5-1.5-4.8-4.1-4.8
						c-2.7,0-4.1,2.3-4.1,4.8c0,2.6,1.5,4.8,4.1,4.8C-64.8,393.8-63.3,391.6-63.3,389L-63.3,389z M-73.6,389c0-3.6,2.4-6.5,6.2-6.5
						c3.8,0,6.2,2.9,6.2,6.5c0,3.6-2.4,6.6-6.2,6.6C-71.3,395.6-73.6,392.6-73.6,389L-73.6,389z M-81.9,392.6v-8.2H-84v-1.7h2.1
						v-3.4h2v3.4h2.5v1.7H-80v7.8c0,0.9,0.4,1.6,1.2,1.6c0.6,0,1.1-0.3,1.3-0.5l0.6,1.5c-0.5,0.5-1.2,0.8-2.3,0.8
						C-81,395.6-81.9,394.5-81.9,392.6L-81.9,392.6z"/>
				</g>
			</g>
			<path id="CONNECT-Copy-4" sketch:type="MSShapeGroup" class="st11" d="M-95.3,419.4c0,2.9,1.6,4.8,3.9,4.8c1.2,0,2-0.5,2.7-1.3
				l-0.4-0.4c-0.7,0.8-1.4,1.1-2.3,1.1c-2,0-3.2-1.7-3.2-4.2c0-2.6,1.3-4.2,3.3-4.2c0.8,0,1.5,0.4,2,0.9l0.4-0.4
				c-0.5-0.6-1.3-1.1-2.4-1.1C-93.7,414.6-95.3,416.4-95.3,419.4L-95.3,419.4z M-70.3,424.2c2.2,0,3.8-1.9,3.8-4.8
				c0-2.9-1.6-4.7-3.8-4.7c-2.2,0-3.8,1.8-3.8,4.7C-74.1,422.3-72.5,424.2-70.3,424.2L-70.3,424.2z M-70.3,423.6
				c-1.9,0-3.1-1.7-3.1-4.2c0-2.5,1.3-4.2,3.1-4.2c1.9,0,3.1,1.6,3.1,4.2C-67.2,421.9-68.5,423.6-70.3,423.6L-70.3,423.6z
				 M-50.8,424h0.6v-5.7c0-0.9,0-1.7-0.1-2.6h0.1l1.1,1.8l3.9,6.5h0.7v-9.2h-0.6v5.7c0,0.9,0,1.8,0.1,2.7h-0.1l-1.1-1.8l-3.9-6.5
				h-0.7V424z M-28.3,424h0.6v-5.7c0-0.9,0-1.7-0.1-2.6h0.1l1.1,1.8l3.9,6.5h0.7v-9.2h-0.6v5.7c0,0.9,0,1.8,0.1,2.7h-0.1l-1.1-1.8
				l-3.9-6.5h-0.7V424z M-5.8,424h5.2v-0.6h-4.5v-4.1h3.7v-0.6h-3.7v-3.5h4.4v-0.6h-5V424z M14.4,419.4c0,2.9,1.6,4.8,3.9,4.8
				c1.2,0,2-0.5,2.7-1.3l-0.4-0.4c-0.7,0.8-1.4,1.1-2.3,1.1c-2,0-3.2-1.7-3.2-4.2c0-2.6,1.3-4.2,3.3-4.2c0.8,0,1.5,0.4,2,0.9
				l0.4-0.4c-0.5-0.6-1.3-1.1-2.4-1.1C16,414.6,14.4,416.4,14.4,419.4L14.4,419.4z M38.5,424h0.6v-8.7h2.9v-0.6h-6.5v0.6h2.9V424z"
				/>
		</g>
	</g>
</g>
</svg>
